# xmcd CD database file
#
# Track frame offsets:
#	150
#	13032
#	28793
#	44060
#	56283
#	71824
#	85837
#	103309
#	117196
#	130947
#	143821
#	158390
#	170118
#	181954
#	195022
#	206837
#	224750
#	239167
#	252460
#	263504
#	275106
#
# Disc length: 3836 seconds
#
# Revision: 0
# Processed by: cddbd v1.5.2PL0 Copyright (c) Steve Scherf et al.
# Submitted via: CDex 1.70beta2
#
DISCID=430efa15
DTITLE=Glenn Keener - Pickin' On Chet and Merle
DYEAR=2000
DGENRE=Country
TTITLE0=Caravan
TTITLE1=Lover Come Back To Me
TTITLE2=Unchained Melody
TTITLE3=I'll See You In My Dreams
TTITLE4=St Louis Blues
TTITLE5=I Walk The Line
TTITLE6=The Bells Of St. Mary
TTITLE7=She's Still With Me
TTITLE8=Third Man Theme
TTITLE9=Cannonball Rag
TTITLE10=I'm A Dancin' Fool
TTITLE11=Blue Eyes Cryin' In The Rain
TTITLE12=Wildwood Flower
TTITLE13=Poor People Of Paris
TTITLE14=Thumping
TTITLE15=Mr. Bojangles
TTITLE16=Break My Mind
TTITLE17=Brenna's Song
TTITLE18=Rollin'
TTITLE19=Black Mountain Rag
TTITLE20=Windy And Warm
EXTD=YEAR: 2000
EXTT0=
EXTT1=
EXTT2=
EXTT3=
EXTT4=
EXTT5=
EXTT6=
EXTT7=
EXTT8=
EXTT9=
EXTT10=
EXTT11=
EXTT12=
EXTT13=
EXTT14=
EXTT15=
EXTT16=
EXTT17=
EXTT18=
EXTT19=
EXTT20=
PLAYORDER=
